<svg width="192" height="103" viewBox="0 0 192 103" fill="none" xmlns="http://www.w3.org/2000/svg">
<path d="M161.568 76.46C163.688 79.156 159.216 90.2999 157.232 95.284C156.616 96.8039 157.912 97.412 159.288 96.268C168.136 88.86 170.408 73.3319 168.616 71.076C166.808 68.8599 151.336 66.948 141.888 73.588C140.424 74.604 140.68 76.02 142.288 75.82C147.608 75.18 159.464 73.764 161.568 76.46ZM154.704 84.308C138.192 96.492 114.256 102.972 93.648 102.972C64.76 102.972 38.752 92.2999 19.072 74.532C17.52 73.124 18.912 71.22 20.752 72.292C41.992 84.652 68.264 92.108 95.376 92.108C113.672 92.108 133.8 88.3 152.296 80.444C155.08 79.268 157.44 82.292 154.704 84.308ZM170.968 59.068C170.413 59.1073 169.858 58.9968 169.36 58.748C169.032 58.54 168.664 57.948 168.296 56.948L154.424 22.108C154.312 21.7917 154.19 21.4795 154.056 21.172C153.935 20.9 153.872 20.6057 153.872 20.308C153.872 19.636 154.264 19.284 155.04 19.284H159.68C160.464 19.284 161 19.396 161.32 19.604C161.64 19.812 161.976 20.42 162.336 21.412L173.088 51.996L183.832 21.412C184.2 20.42 184.544 19.812 184.856 19.604C185.365 19.3547 185.931 19.2443 186.496 19.284H190.816C191.616 19.284 192 19.636 192 20.308C191.988 20.6059 191.92 20.8989 191.8 21.172C191.672 21.492 191.544 21.796 191.448 22.108L177.632 56.948C177.272 57.94 176.912 58.54 176.576 58.748C176.078 58.9968 175.523 59.1073 174.968 59.068H170.968ZM141.816 59.612C134.384 59.612 130.68 55.908 130.68 48.476V25.412H125.032C123.992 25.412 123.456 24.884 123.456 23.844V21.876C123.431 21.4534 123.558 21.0359 123.816 20.7C124.056 20.452 124.504 20.26 125.184 20.164L130.92 19.444L131.936 9.72395C132.04 8.68395 132.592 8.15595 133.592 8.15595H136.872C137.912 8.15595 138.44 8.68395 138.44 9.72395V19.292H148.648C149.688 19.292 150.208 19.812 150.208 20.868V23.844C150.208 24.884 149.696 25.412 148.648 25.412H138.44V48.084C138.44 50.028 138.88 51.372 139.736 52.164C140.6 52.948 142.08 53.34 144.176 53.34C145.168 53.34 146.392 53.212 147.856 52.948C148.648 52.788 149.168 52.708 149.432 52.708C149.848 52.708 150.136 52.82 150.296 53.06C150.456 53.3 150.528 53.676 150.528 54.196V56.324C150.56 56.8502 150.45 57.3753 150.208 57.844C150 58.188 149.584 58.468 148.952 58.668C146.634 59.3374 144.228 59.6556 141.816 59.612ZM104.496 35.804C104.544 35.388 104.584 34.708 104.584 33.764C104.584 30.572 103.832 28.18 102.344 26.556C100.856 24.924 98.664 24.108 95.8 24.108C92.504 24.108 89.944 25.092 88.104 27.06C86.28 29.02 85.224 31.94 84.968 35.804H104.496ZM96.96 60.364C90.536 60.364 85.672 58.588 82.368 55.028C79.072 51.476 77.44 46.212 77.44 39.252C77.44 32.612 79.072 27.452 82.368 23.756C85.672 20.076 90.272 18.228 96.192 18.228C101.152 18.228 104.976 19.636 107.648 22.42C110.304 25.228 111.648 29.188 111.648 34.316C111.648 35.996 111.512 37.692 111.248 39.42C111.136 40.036 110.976 40.46 110.736 40.668C110.504 40.884 110.12 40.988 109.6 40.988H84.96C85.064 45.492 86.192 48.804 88.304 50.948C90.424 53.092 93.696 54.172 98.144 54.172C99.712 54.172 101.224 54.06 102.656 53.852C104.503 53.5366 106.326 53.0929 108.112 52.524L109.048 52.244C109.28 52.1627 109.523 52.1195 109.768 52.116C110.448 52.116 110.768 52.596 110.768 53.532V55.74C110.768 56.42 110.672 56.892 110.472 57.18C110.103 57.5833 109.646 57.8955 109.136 58.092C107.331 58.8396 105.451 59.3895 103.528 59.732C101.367 60.1553 99.17 60.3669 96.968 60.364M53.576 59.188C52.536 59.188 52.016 58.66 52.016 57.612V20.972C52.016 19.932 52.528 19.412 53.576 19.412H57.032C57.544 19.412 57.96 19.508 58.256 19.724C58.544 19.924 58.736 20.332 58.832 20.892L59.392 25.292C60.8 23.772 62.136 22.572 63.384 21.676C65.7614 19.9715 68.6189 19.0667 71.544 19.092C72.176 19.092 72.808 19.116 73.424 19.172C74.32 19.284 74.768 19.748 74.768 20.58V24.82C74.768 25.756 74.304 26.236 73.344 26.236C72.88 26.236 72.432 26.204 71.984 26.156C71.5058 26.1029 71.0251 26.0762 70.544 26.076C66.352 26.076 62.76 27.332 59.776 29.836V57.612C59.776 58.66 59.248 59.188 58.216 59.188H53.576ZM35.584 59.188C34.544 59.188 34.016 58.66 34.016 57.612V20.972C34.016 19.932 34.544 19.412 35.584 19.412H40.216C41.256 19.412 41.776 19.924 41.776 20.972V57.612C41.776 58.66 41.256 59.188 40.216 59.188H35.584ZM37.944 12.34C36.424 12.34 35.232 11.908 34.368 11.06C33.9329 10.606 33.5944 10.0685 33.373 9.48C33.1516 8.89146 33.0519 8.26413 33.08 7.63596C33.08 6.22796 33.512 5.09195 34.36 4.22795C35.24 3.35595 36.416 2.92395 37.944 2.92395C39.456 2.92395 40.64 3.35595 41.512 4.22795C42.368 5.09195 42.792 6.22796 42.792 7.63596C42.82 8.26224 42.7211 8.88772 42.5011 9.47478C42.2812 10.0618 41.9447 10.5983 41.512 11.052C41.0339 11.4947 40.4717 11.8369 39.8587 12.0581C39.2458 12.2794 38.5947 12.3752 37.944 12.34ZM8.944 59.188C7.888 59.188 7.368 58.66 7.368 57.612V25.532H1.56C0.52 25.532 0 25.004 0 23.956V21.996C0 21.476 0.112 21.084 0.344 20.82C0.584 20.556 1.048 20.38 1.728 20.26L7.368 19.564V13.132C7.368 4.40395 11.552 0.0279541 19.928 0.0279541C21.912 0.0279541 24.008 0.315956 26.2 0.899956C26.776 1.05196 27.176 1.27595 27.416 1.60395C27.648 1.90795 27.768 2.45995 27.768 3.24395V5.28395C27.768 6.27595 27.384 6.77195 26.584 6.77195C26.12 6.77195 25.464 6.69196 24.6 6.53996C23.72 6.37996 22.76 6.29995 21.648 6.29995C19.248 6.29995 17.568 6.75595 16.584 7.67595C15.616 8.59595 15.136 10.1 15.136 12.188V19.412H25.728C26.776 19.412 27.304 19.924 27.304 20.972V23.956C27.304 24.996 26.776 25.532 25.728 25.532H15.136V57.612C15.136 58.66 14.616 59.188 13.568 59.188H8.944Z" fill="#F97316"/>
</svg>
