<svg width="41" height="41" viewBox="0 0 41 41" fill="none" xmlns="http://www.w3.org/2000/svg">
<path d="M40.5 15.5V17C40.4968 19.538 39.5755 21.9892 37.9061 23.9009C36.2367 25.8126 33.932 27.0557 31.4175 27.4007C32.4439 28.714 33.001 30.3332 33 32V39.5C33 39.8979 32.842 40.2794 32.5607 40.5607C32.2794 40.842 31.8978 41 31.5 41H19.5C19.1022 41 18.7206 40.842 18.4393 40.5607C18.158 40.2794 18 39.8979 18 39.5V36.5H13.5C11.5109 36.5 9.60322 35.7099 8.1967 34.3033C6.79018 32.8968 6 30.9891 6 29C6 27.8066 5.52589 26.662 4.68198 25.818C3.83807 24.9741 2.69347 24.5 1.5 24.5C1.10218 24.5 0.720644 24.342 0.43934 24.0607C0.158035 23.7794 0 23.3978 0 23C0 22.6022 0.158035 22.2207 0.43934 21.9394C0.720644 21.6581 1.10218 21.5 1.5 21.5C2.48491 21.5 3.46018 21.694 4.37013 22.0709C5.28007 22.4478 6.10686 23.0003 6.8033 23.6967C7.49974 24.3932 8.05219 25.22 8.4291 26.1299C8.80601 27.0398 9 28.0151 9 29C9 30.1935 9.47411 31.3381 10.318 32.182C11.1619 33.0259 12.3065 33.5 13.5 33.5H18V32C17.999 30.3332 18.5561 28.714 19.5825 27.4007C17.068 27.0557 14.7633 25.8126 13.0939 23.9009C11.4245 21.9892 10.5032 19.538 10.5 17V15.5C10.5187 13.6359 11.0151 11.8076 11.9419 10.19C11.4834 8.71102 11.3363 7.15305 11.5099 5.61437C11.6835 4.07569 12.1741 2.58968 12.9506 1.25002C13.0823 1.02195 13.2717 0.832558 13.4998 0.700902C13.7279 0.569247 13.9866 0.499965 14.25 0.500025C15.9971 0.496368 17.7209 0.901395 19.2836 1.68275C20.8463 2.4641 22.2046 3.60011 23.25 5.00002H27.75C28.7954 3.60011 30.1537 2.4641 31.7164 1.68275C33.2791 0.901395 35.0028 0.496368 36.75 0.500025C37.0134 0.499965 37.2721 0.569247 37.5002 0.700902C37.7283 0.832558 37.9177 1.02195 38.0494 1.25002C38.826 2.58965 39.3165 4.07575 39.4898 5.6145C39.6631 7.15324 39.5155 8.71121 39.0563 10.19C39.9848 11.807 40.4819 13.6355 40.5 15.5Z" fill="white"/>
</svg>
